<?xml version="1.0" encoding="iso-8859-1"?>
<!-- Generator: Adobe Illustrator 19.0.0, SVG Export Plug-In . SVG Version: 6.00 Build 0)  -->
<svg version="1.1" id="Capa_1" xmlns="http://www.w3.org/2000/svg" xmlns:xlink="http://www.w3.org/1999/xlink" x="0px" y="0px"
	 viewBox="0 0 480 480" style="enable-background:new 0 0 480 480;" xml:space="preserve">
<path style="fill:#F7D04F;" d="M341.36,78.72c-63.211-55.241-159.235-48.779-214.475,14.432
	c-51.613,59.06-49.813,147.693,4.155,204.608C164.551,331.276,183.568,376.607,184,424v8h112v-8
	c-0.339-46.332,17.833-90.882,50.48-123.76C375.701,271.824,392.129,232.759,392,192C392.003,148.756,373.586,107.557,341.36,78.72z
	"/>
<path style="fill:#63C8CD;" d="M296,448H184v16h48v16h16v-16h48V448z"/>
<g>
	<path style="fill:#EF9F35;" d="M232,0h16v24h-16V0z"/>
	<path style="fill:#EF9F35;" d="M408,184h24v16h-24V184z"/>
	<path style="fill:#EF9F35;" d="M48,184h24v16H48V184z"/>
	<path style="fill:#EF9F35;" d="M353.157,67.525l16.971-16.971l11.314,11.314l-16.971,16.971L353.157,67.525z"/>
	<path style="fill:#EF9F35;" d="M98.597,322.089l16.971-16.971l11.314,11.314l-16.971,16.971L98.597,322.089z"/>
	<path style="fill:#EF9F35;" d="M353.159,316.43l11.314-11.314l16.971,16.971l-11.314,11.314L353.159,316.43z"/>
	<path style="fill:#EF9F35;" d="M98.595,61.87l11.314-11.314l16.971,16.971l-11.314,11.314L98.595,61.87z"/>
</g>
<g>
	<path style="fill:#F9F6ED;" d="M296,160c-17.673,0-32,14.327-32,32v16h-48v-16c0-17.673-14.327-32-32-32s-32,14.327-32,32
		s14.327,32,32,32h18.56L216,257.52V424h16V254.48L219.84,224h40L248,254.48V424h16V257.52L277.44,224H296c17.673,0,32-14.327,32-32
		S313.673,160,296,160L296,160z M184,208c-8.837,0-16-7.163-16-16s7.163-16,16-16s16,7.163,16,16v16H184z M296,208h-16v-16
		c0-8.837,7.163-16,16-16s16,7.163,16,16S304.837,208,296,208z"/>
	<path style="fill:#F9F6ED;" d="M334,147.44c-9.052-19.087-23.702-34.964-42-45.52l8-13.84c21.114,12.165,38.023,30.47,48.48,52.48
		L334,147.44z"/>
	<path style="fill:#F9F6ED;" d="M278.64,95.44c-5.181-2.131-10.533-3.817-16-5.04l3.36-16c6.467,1.396,12.809,3.323,18.96,5.76
		L278.64,95.44z"/>
</g>
<path style="fill:#1895AA;" d="M184,416h112v32H184V416z"/>
<g>
</g>
<g>
</g>
<g>
</g>
<g>
</g>
<g>
</g>
<g>
</g>
<g>
</g>
<g>
</g>
<g>
</g>
<g>
</g>
<g>
</g>
<g>
</g>
<g>
</g>
<g>
</g>
<g>
</g>
</svg>
